<svg xmlns="http://www.w3.org/2000/svg" width="176" height="40" fill="none" viewBox="0 0 176 40"><g clip-path="url(#a)"><path fill="#6938EF" d="M20 0C8.954 0 0 8.954 0 20c11.046 0 20-8.954 20-20Z"></path><path fill="#B8AEFF" d="M20 40c11.046 0 20-8.954 20-20-11.046 0-20 8.954-20 20Z"></path><path fill="#4A1FB8" d="M20 0c11.046 0 20 8.954 20 20-11.046 0-20-8.954-20-20Z"></path><path fill="#9B8AFB" d="M20 40C8.954 40 0 31.046 0 20c11.046 0 20 8.954 20 20Z"></path><path fill="#EFEEFF" d="M61.6 32.32c-1.494 0-2.838-.181-4.033-.544-1.194-.384-2.336-1.045-3.424-1.984a2.524 2.524 0 0 1-.64-.8 1.987 1.987 0 0 1-.224-.896c0-.49.171-.917.512-1.28a1.773 1.773 0 0 1 1.344-.576c.406 0 .768.128 1.088.384.811.66 1.611 1.163 2.4 1.504.811.34 1.803.512 2.976.512.79 0 1.515-.117 2.176-.352.662-.256 1.195-.587 1.6-.992.406-.427.608-.907.608-1.44 0-.64-.192-1.184-.576-1.632-.384-.448-.97-.821-1.76-1.12-.789-.32-1.792-.565-3.008-.736-1.152-.17-2.165-.427-3.04-.768-.874-.363-1.61-.81-2.208-1.344a5.6 5.6 0 0 1-1.312-1.92c-.298-.747-.448-1.58-.448-2.496 0-1.387.352-2.57 1.056-3.552.726-.981 1.696-1.728 2.912-2.24 1.216-.512 2.56-.768 4.032-.768 1.387 0 2.667.213 3.84.64 1.195.405 2.166.928 2.912 1.568.62.49.928 1.056.928 1.696 0 .47-.18.896-.544 1.28-.362.384-.789.576-1.28.576-.32 0-.608-.096-.864-.288-.34-.3-.8-.576-1.376-.832a10.34 10.34 0 0 0-1.824-.672 6.257 6.257 0 0 0-1.792-.288c-.917 0-1.696.117-2.336.352-.618.235-1.088.555-1.408.96-.32.405-.48.875-.48 1.408 0 .64.182 1.173.544 1.6.384.405.928.736 1.632.992.704.235 1.547.448 2.528.64 1.28.235 2.4.512 3.36.832.982.32 1.792.736 2.432 1.248.64.49 1.12 1.12 1.44 1.888.32.747.48 1.664.48 2.752 0 1.387-.384 2.58-1.152 3.584-.768 1.003-1.78 1.77-3.04 2.304-1.237.533-2.58.8-4.03.8Zm18.997 0c-1.813 0-3.392-.373-4.736-1.12-1.323-.768-2.347-1.803-3.072-3.104-.704-1.301-1.056-2.773-1.056-4.416 0-1.92.384-3.552 1.152-4.896.79-1.365 1.813-2.41 3.072-3.136 1.26-.725 2.592-1.088 4-1.088 1.088 0 2.112.224 3.072.672a8.258 8.258 0 0 1 2.592 1.856 8.51 8.51 0 0 1 1.76 2.688 8.06 8.06 0 0 1 .672 3.264 1.643 1.643 0 0 1-.608 1.248c-.384.32-.832.48-1.344.48H73.877l-.96-3.2h11.744l-.704.64v-.864a2.866 2.866 0 0 0-.672-1.664 3.947 3.947 0 0 0-1.472-1.152 3.975 3.975 0 0 0-1.856-.448c-.64 0-1.237.085-1.792.256a3.435 3.435 0 0 0-1.44.864c-.405.405-.725.95-.96 1.632-.235.683-.352 1.547-.352 2.592 0 1.152.235 2.133.704 2.944.49.79 1.11 1.397 1.856 1.824.748.4 1.584.61 2.432.608.79 0 1.42-.064 1.888-.192.47-.128.843-.277 1.12-.448.3-.192.565-.352.8-.48.384-.192.747-.288 1.088-.288.47 0 .853.16 1.152.48.32.32.48.693.48 1.12 0 .576-.299 1.099-.896 1.568-.555.47-1.333.885-2.336 1.248-1 .34-2.048.514-3.104.512ZM91.38 14.88c.405 0 .78.107 1.12.32.341.192.597.49.768.896l4.704 10.752-.704.32 4.8-11.04c.362-.853.928-1.26 1.696-1.216.533 0 .96.17 1.28.512.341.32.512.725.512 1.216 0 .15-.032.31-.096.48a3.244 3.244 0 0 1-.16.48l-5.984 13.184c-.34.768-.886 1.173-1.632 1.216-.406.064-.8-.01-1.184-.224-.363-.213-.64-.544-.832-.992L89.716 17.6a20.139 20.139 0 0 1-.16-.416 2.533 2.533 0 0 1-.064-.608c0-.384.17-.757.512-1.12.341-.384.8-.576 1.376-.576Zm24.468 17.44c-1.813 0-3.392-.373-4.736-1.12-1.322-.768-2.346-1.803-3.072-3.104-.704-1.301-1.056-2.773-1.056-4.416 0-1.92.384-3.552 1.152-4.896.79-1.365 1.814-2.41 3.072-3.136 1.259-.725 2.592-1.088 4-1.088 1.088 0 2.112.224 3.072.672a8.234 8.234 0 0 1 2.592 1.856 8.494 8.494 0 0 1 1.76 2.688 8.056 8.056 0 0 1 .672 3.264 1.642 1.642 0 0 1-.608 1.248c-.384.32-.832.48-1.344.48h-12.224l-.96-3.2h11.744l-.704.64v-.864a2.853 2.853 0 0 0-.672-1.664 3.937 3.937 0 0 0-1.472-1.152 3.972 3.972 0 0 0-1.856-.448c-.64 0-1.237.085-1.792.256a3.438 3.438 0 0 0-1.44.864c-.405.405-.725.95-.96 1.632-.234.683-.352 1.547-.352 2.592 0 1.152.235 2.133.704 2.944.491.79 1.11 1.397 1.856 1.824.748.4 1.584.61 2.432.608.79 0 1.419-.064 1.888-.192.47-.128.843-.277 1.12-.448.299-.192.566-.352.8-.48.384-.192.747-.288 1.088-.288.47 0 .854.16 1.152.48.32.32.48.693.48 1.12 0 .576-.298 1.099-.896 1.568-.554.47-1.333.885-2.336 1.248a9.558 9.558 0 0 1-3.104.512Zm19.323-17.76c1.579 0 2.774.33 3.584.992.832.66 1.398 1.547 1.696 2.656.32 1.088.48 2.304.48 3.648v8.192c0 .555-.181 1.024-.544 1.408-.362.363-.821.544-1.376.544-.554 0-1.013-.181-1.376-.544-.362-.384-.544-.853-.544-1.408v-8.192c0-.704-.096-1.333-.288-1.888a2.538 2.538 0 0 0-.96-1.376c-.469-.341-1.141-.512-2.016-.512-.853 0-1.578.17-2.176.512-.576.34-1.024.8-1.344 1.376-.298.555-.448 1.184-.448 1.888v8.192c0 .555-.181 1.024-.544 1.408-.362.363-.821.544-1.376.544-.554 0-1.013-.181-1.376-.544-.362-.384-.544-.853-.544-1.408V16.832c0-.555.182-1.013.544-1.376.363-.384.822-.576 1.376-.576.555 0 1.014.192 1.376.576.363.363.544.82.544 1.376v1.376l-.48-.096c.192-.363.47-.747.832-1.152.363-.427.79-.821 1.28-1.184a6.174 6.174 0 0 1 1.664-.864 5.644 5.644 0 0 1 2.016-.352Zm25.144.064-6.912 16.256c-.15.405-.384.725-.704.96a1.67 1.67 0 0 1-.992.32c-.576 0-1.003-.16-1.28-.48-.278-.32-.416-.715-.416-1.184 0-.192.032-.395.096-.608l7.968-19.136c.17-.427.426-.757.768-.992.362-.235.746-.33 1.152-.288.384 0 .736.117 1.056.352.341.213.586.523.736.928l7.872 18.752c.106.277.16.533.16.768 0 .576-.192 1.035-.576 1.376-.363.34-.768.512-1.216.512-.384 0-.736-.117-1.056-.352a2.334 2.334 0 0 1-.704-.96l-6.88-16.032.928-.192Zm-5.92 12.352 1.76-3.68h8.64l.608 3.68h-11.008Zm21.493 3.072c0 .555-.203 1.024-.608 1.408a2.047 2.047 0 0 1-1.408.544c-.597 0-1.077-.181-1.44-.544-.363-.384-.544-.853-.544-1.408V11.552c0-.555.192-1.013.576-1.376.384-.384.875-.576 1.472-.576.512 0 .96.192 1.344.576.405.363.608.82.608 1.376v18.496Z"></path></g><defs><clipPath id="a"><path fill="#fff" d="M0 0h176v40H0z"></path></clipPath></defs></svg>